<svg width="24" height="24" viewBox="0 0 24 24" fill="none" xmlns="http://www.w3.org/2000/svg">
<path d="M22.1366 1.86245C20.9402 0.669747 19.3198 0 17.6305 0C15.9413 0 14.3209 0.669747 13.1245 1.86245L5.90276 9.08607C5.53122 9.45532 5.2367 9.89468 5.03628 10.3787C4.83586 10.8626 4.73353 11.3816 4.73524 11.9054C4.73524 12.4284 4.83832 12.9462 5.03857 13.4292C5.23882 13.9123 5.53232 14.3511 5.9023 14.7207C6.27227 15.0902 6.71146 15.3832 7.19474 15.5829C7.67802 15.7826 8.19593 15.885 8.71883 15.8844C9.73822 15.8844 10.756 15.4989 11.5333 14.7216L14.9132 11.3431C15.5097 10.7453 15.8446 9.93532 15.8446 9.09085C15.8446 8.24637 15.5097 7.43637 14.9132 6.83854L9.28109 12.4693C9.13155 12.6188 8.92873 12.7029 8.71724 12.7029C8.50576 12.7029 8.30293 12.6188 8.15339 12.4693C8.00385 12.3197 7.91984 12.1169 7.91984 11.9054C7.91984 11.6939 8.00385 11.4911 8.15339 11.3416L15.3767 4.11476C15.9755 3.51889 16.7858 3.18437 17.6305 3.18437C18.4753 3.18437 19.2856 3.51889 19.8844 4.11476C20.4804 4.71278 20.8151 5.52271 20.8151 6.36706C20.8151 7.21141 20.4804 8.02133 19.8844 8.61936L12.6578 15.8462L8.62008 19.8841C8.02207 20.4801 7.21218 20.8148 6.36786 20.8148C5.52354 20.8148 4.71365 20.4801 4.11564 19.8841C3.51883 19.2864 3.1836 18.4764 3.1836 17.6318C3.1836 16.7871 3.51883 15.9771 4.11564 15.3794L4.26696 15.2265C3.5407 14.2475 3.14867 13.0607 3.14881 11.8417L1.86343 13.1271C0.670179 14.3226 0 15.9427 0 17.6318C0 19.3208 0.670179 20.9409 1.86343 22.1364C3.10422 23.3772 4.73683 24 6.36786 24C7.99889 24 9.63151 23.3772 10.8723 22.1364L22.1366 10.8717C23.3298 9.67622 24 8.05615 24 6.36706C24 4.67797 23.3298 3.05789 22.1366 1.86245Z" fill="#E0E0E0"/>
</svg>
