<svg width="19" height="12" viewBox="0 0 19 12" fill="none" xmlns="http://www.w3.org/2000/svg">
<path d="M13.3806 2.39176C13.2558 1.9703 13.0034 1.59155 12.6537 1.30307C12.2201 0.945374 11.6656 0.749943 11.0938 0.75C11.0937 0.75 11.0937 0.75 11.0937 0.75H3.125C2.49984 0.75 1.89746 0.983595 1.45106 1.40374C1.00414 1.82436 0.75 2.3982 0.75 3V9C0.75 9.6018 1.00414 10.1756 1.45106 10.5963C1.89746 11.0164 2.49984 11.25 3.125 11.25H11.0937C11.0937 11.25 11.0937 11.25 11.0938 11.25C11.6656 11.2501 12.2201 11.0546 12.6537 10.6969C13.0034 10.4084 13.2558 10.0297 13.3806 9.6082L16.4097 10.8746C16.6081 10.9576 16.8246 10.9923 17.0398 10.9763C17.2551 10.9603 17.4637 10.8939 17.6465 10.7821C17.8295 10.6703 17.9815 10.5163 18.0875 10.3327C18.1936 10.149 18.2498 9.94224 18.25 9.73123V9.731V2.269V2.26889C18.2499 2.05771 18.1937 1.85073 18.0875 1.66691L17.871 1.79192L18.0875 1.66691C17.9815 1.4832 17.8293 1.32904 17.6462 1.21721C17.4631 1.10541 17.2544 1.03906 17.0389 1.02316C16.8235 1.00727 16.6068 1.04224 16.4084 1.12545L13.3806 2.39176ZM16.6875 2.64461V9.35539L13.4688 8.0086V3.9914L16.6875 2.64461ZM2.54504 2.47494C2.69641 2.33248 2.90479 2.25 3.125 2.25H11.0938C11.314 2.25 11.5223 2.33248 11.6737 2.47494C11.8246 2.61693 11.9062 2.80615 11.9062 3V9C11.9062 9.19385 11.8246 9.38307 11.6737 9.52506C11.5223 9.66752 11.314 9.75 11.0938 9.75H3.125C2.90479 9.75 2.69641 9.66752 2.54504 9.52506C2.39418 9.38307 2.3125 9.19385 2.3125 9V3C2.3125 2.80615 2.39418 2.61693 2.54504 2.47494Z" fill="#F2F2F2" stroke="#F2F2F2" stroke-width="0.5"/>
</svg>
