<svg width="29" height="29" viewBox="0 0 29 29" fill="none" xmlns="http://www.w3.org/2000/svg">
<path d="M2.41699 6.04165C2.41699 5.72118 2.5443 5.41383 2.7709 5.18723C2.99751 4.96062 3.30486 4.83331 3.62533 4.83331H25.3753C25.6958 4.83331 26.0031 4.96062 26.2297 5.18723C26.4564 5.41383 26.5837 5.72118 26.5837 6.04165C26.5837 6.36212 26.4564 6.66946 26.2297 6.89607C26.0031 7.12267 25.6958 7.24998 25.3753 7.24998H3.62533C3.30486 7.24998 2.99751 7.12267 2.7709 6.89607C2.5443 6.66946 2.41699 6.36212 2.41699 6.04165ZM7.25033 13.2916C7.25033 12.9712 7.37763 12.6638 7.60424 12.4372C7.83084 12.2106 8.13819 12.0833 8.45866 12.0833H20.542C20.8625 12.0833 21.1698 12.2106 21.3964 12.4372C21.623 12.6638 21.7503 12.9712 21.7503 13.2916C21.7503 13.6121 21.623 13.9195 21.3964 14.1461C21.1698 14.3727 20.8625 14.5 20.542 14.5H8.45866C8.13819 14.5 7.83084 14.3727 7.60424 14.1461C7.37763 13.9195 7.25033 13.6121 7.25033 13.2916ZM12.0837 19.3333C11.7632 19.3333 11.4558 19.4606 11.2292 19.6872C11.0026 19.9138 10.8753 20.2212 10.8753 20.5416C10.8753 20.8621 11.0026 21.1695 11.2292 21.3961C11.4558 21.6227 11.7632 21.75 12.0837 21.75H16.917C17.2375 21.75 17.5448 21.6227 17.7714 21.3961C17.998 21.1695 18.1253 20.8621 18.1253 20.5416C18.1253 20.2212 17.998 19.9138 17.7714 19.6872C17.5448 19.4606 17.2375 19.3333 16.917 19.3333H12.0837Z" fill="#69FFC9"/>
</svg>
