<svg width="40" height="40" viewBox="0 0 40 40" fill="none" xmlns="http://www.w3.org/2000/svg">
<path d="M27.2868 19.3683C29.9035 19.3683 31.6668 21.1883 31.6668 23.885C31.6668 26.3117 29.6402 28.3333 26.8952 28.3333C23.8885 28.3333 21.6668 25.9067 21.6668 22.2C21.6668 13.775 27.8102 10.405 31.6668 10V13.7067C29.0518 14.1783 26.1118 16.8067 25.9802 19.7067C26.1118 19.64 26.6335 19.3683 27.2868 19.3683ZM13.9552 19.3683C16.5685 19.3683 18.3335 21.1883 18.3335 23.885C18.3335 26.3117 16.3068 28.3333 13.5618 28.3333C10.5552 28.3333 8.3335 25.9067 8.3335 22.2C8.3335 13.775 14.4768 10.405 18.3335 10V13.7067C15.7185 14.1783 12.7785 16.8067 12.6468 19.7067C12.7785 19.64 13.3002 19.3683 13.9552 19.3683Z" fill="black"/>
</svg>
