<svg width="16" height="16" viewBox="0 0 16 16" fill="none" xmlns="http://www.w3.org/2000/svg">
<path d="M7.4522 13.046C7.51336 13.1348 7.5952 13.2075 7.69066 13.2576C7.78613 13.3078 7.89236 13.334 8.0002 13.334C8.10805 13.334 8.21428 13.3078 8.30974 13.2576C8.40521 13.2075 8.48704 13.1348 8.5482 13.046L14.5482 4.37933C14.6177 4.27937 14.6584 4.16228 14.666 4.0408C14.6735 3.91932 14.6477 3.79808 14.5912 3.69026C14.5347 3.58244 14.4498 3.49216 14.3456 3.42923C14.2414 3.36631 14.1219 3.33314 14.0002 3.33333L2.0002 3.33333C1.87876 3.33383 1.75976 3.36743 1.65599 3.4305C1.55222 3.49358 1.4676 3.58375 1.41125 3.69132C1.35489 3.79889 1.32893 3.91979 1.33614 4.04102C1.34336 4.16224 1.38348 4.2792 1.4522 4.37933L7.4522 13.046Z" fill="#69FFC9"/>
</svg>
