<svg width="32" height="32" viewBox="0 0 32 32" fill="none" xmlns="http://www.w3.org/2000/svg">
<path d="M21.3335 28C26.0362 25.9373 29.3322 21.4547 29.3322 16C29.3322 10.5453 26.0362 6.06267 21.3335 4V6.66667C24.5162 8.51467 26.6655 12.0627 26.6655 16C26.6655 19.9373 24.5162 23.4853 21.3335 25.3333V28Z" fill="white"/>
<path d="M21.3332 9.33333V22.6667C22.9665 21.2 23.9998 18.3613 23.9998 16C23.9998 13.6387 22.9665 10.8 21.3332 9.33333ZM5.33317 22.6667H8.92917L18.6665 29.1573V2.84267L8.92917 9.33333H5.33317C3.8625 9.33333 2.6665 10.5293 2.6665 12V20C2.6665 21.4707 3.8625 22.6667 5.33317 22.6667Z" fill="white"/>
</svg>
